<svg width="26" height="26" viewBox="0 0 26 26" fill="none"
    xmlns="http://www.w3.org/2000/svg">
    <rect width="26" height="26" rx="13" fill="#111111"/>
    <path fill-rule="evenodd" clip-rule="evenodd" d="M15.1875 9.7975C15.1875 8.51805 14.0882 7.49325 12.7856 7.61963L12.784 7.61978C11.7215 7.71895 10.8125 8.7956 10.8125 9.90834V10.4742C10.8125 10.7158 10.6166 10.9117 10.375 10.9117C10.1334 10.9117 9.9375 10.7158 9.9375 10.4742V9.90834C9.9375 8.39633 11.1398 6.89491 12.7019 6.74864C14.5256 6.57218 16.0625 8.00889 16.0625 9.7975V10.6025C16.0625 10.8441 15.8666 11.04 15.625 11.04C15.3834 11.04 15.1875 10.8441 15.1875 10.6025V9.7975Z" fill="white"/>
    <path fill-rule="evenodd" clip-rule="evenodd" d="M7.96787 11.1434C8.48436 10.5294 9.36987 10.2292 10.6666 10.2292H15.3333C16.6301 10.2292 17.5156 10.5294 18.0321 11.1434C18.5444 11.7525 18.5924 12.553 18.5098 13.299L18.5091 13.3051L18.0721 16.8014C18.0076 17.4001 17.8565 18.0557 17.3223 18.5439C16.7908 19.0294 15.9673 19.2709 14.75 19.2709H11.25C10.0326 19.2709 9.2092 19.0294 8.6777 18.5439C8.1434 18.0557 7.99237 17.4 7.92788 16.8014L7.49008 13.299C7.40754 12.553 7.45555 11.7525 7.96787 11.1434ZM8.35949 13.1997L8.79755 16.7042C8.8558 17.2479 8.97646 17.6316 9.26787 17.8979C9.56325 18.1677 10.1223 18.3959 11.25 18.3959H14.75C15.8776 18.3959 16.4367 18.1677 16.7321 17.8979C17.0235 17.6316 17.1442 17.2479 17.2025 16.7042L17.2033 16.6966L17.6405 13.1997C17.7149 12.5239 17.6372 12.0333 17.3625 11.7066C17.0914 11.3844 16.5274 11.1042 15.3333 11.1042H10.6666C9.47258 11.1042 8.9085 11.3844 8.63749 11.7066C8.36273 12.0333 8.28509 12.5239 8.35949 13.1997Z" fill="white"/>
    <path fill-rule="evenodd" clip-rule="evenodd" d="M14.4557 13C14.4557 12.6779 14.7169 12.4167 15.039 12.4167H15.0443C15.3664 12.4167 15.6276 12.6779 15.6276 13C15.6276 13.3222 15.3664 13.5834 15.0443 13.5834H15.039C14.7169 13.5834 14.4557 13.3222 14.4557 13Z" fill="white"/>
    <path fill-rule="evenodd" clip-rule="evenodd" d="M10.3718 13C10.3718 12.6779 10.633 12.4167 10.9551 12.4167H10.9604C11.2825 12.4167 11.5437 12.6779 11.5437 13C11.5437 13.3222 11.2825 13.5834 10.9604 13.5834H10.9551C10.633 13.5834 10.3718 13.3222 10.3718 13Z" fill="white"/>
</svg>
